<svg id="Layer_1" data-name="Layer 1" xmlns="http://www.w3.org/2000/svg" viewBox="0 0 3286.58 583"><defs><style>.cls-1,.cls-2{fill:none;stroke:#000;}.cls-1{stroke-miterlimit:10;stroke-width:27px;}.cls-2{stroke-width:13px;}</style></defs><title>logo java2</title><circle class="cls-1" cx="289.86" cy="292.35" r="213.53"/><path d="M516.38,486.43A36.66,36.66,0,0,1,523.27,508c0,20.23-16.36,36.59-36.16,36.59-8.61,0-15.93-3-22.39-7.75a86.56,86.56,0,0,0-96,0A36.18,36.18,0,0,1,310.17,508c0-20.24,16.36-36.59,36.16-36.59A32.94,32.94,0,0,1,358,473.52a106.79,106.79,0,0,0,109.77-41.76,32.24,32.24,0,0,0,5.17-25A98.83,98.83,0,0,0,457,370.2a36.73,36.73,0,0,1-6.89-21.53c0-20.23,16.36-36.59,36.17-36.59a36.2,36.2,0,0,1,36.16,36.59,36.66,36.66,0,0,1-6.89,21.53A104,104,0,0,0,516.38,486.43Zm-111.5,6.46a86.4,86.4,0,0,0,45.2-6A31.06,31.06,0,0,0,466,471.37a67,67,0,0,0,3.45-8.18,1.89,1.89,0,0,0-2.16-2.59c-23.67,2.16-46.49,12.06-63.71,28.42C402.3,490.31,403.16,492.89,404.88,492.89Z" transform="translate(-154.19 -155.77)"/><path d="M1039.48,270.47q18.74,0,27.63,3.13t12.74,10.33q5.28,11.06,5.29,29.8v186q0,50.46-36.53,89.15t-93.24,38.69q-31.71,0-56.23-13.94Q877,601.61,868.39,592l-3.85-3.84q-16.83-17.77-16.82-30.52t16.82-30q16.82-17.3,29.8-17.3t28.83,15.86Q939,542,957.54,542t30.52-12.5q12-12.48,12-33.16V316.61q0-28.83,9.61-37Q1020.73,270.48,1039.48,270.47Z" transform="translate(-154.19 -155.77)"/><path d="M1326.87,295.46l129.76,268.18q8.17,16.33,8.17,24.51,0,17.29-27.87,31.24-16.35,8.16-25.71,8.17t-15.38-4.33a28.52,28.52,0,0,1-8.65-9.13q-2.65-4.8-7.45-14.42l-25-51.9H1221.62l-25,51.9q-4.8,9.62-7.45,13.94a34.26,34.26,0,0,1-8.65,8.89q-6,4.56-15.38,4.57t-25.71-8.17q-27.87-13.45-27.87-30.76,0-8.17,8.17-24.51L1249.5,295a42,42,0,0,1,16.1-17.78,42.56,42.56,0,0,1,22.83-6.73Q1314.38,270.47,1326.87,295.46ZM1288,410.81l-31.72,65.84h63.92Z" transform="translate(-154.19 -155.77)"/><path d="M1740.67,275.76q28.35,14,28.36,30.76,0,7.69-7.21,23.07L1629.17,598.72a41.15,41.15,0,0,1-16.1,17.06,42.85,42.85,0,0,1-22.35,6.49h-4.8a43.65,43.65,0,0,1-22.83-6.49,41.09,41.09,0,0,1-16.1-17.06L1414.35,329.59q-7.21-15.37-7.21-23.07,0-16.81,28.35-30.76,15.85-8.16,24.27-8.17c5.6,0,9.85.65,12.74,1.92a22.56,22.56,0,0,1,8.17,6.73A92,92,0,0,1,1488.6,289q3.6,7,18.5,39.89t32,69.92q17.06,37,32.2,69.93t17.06,36.76L1684.44,295q3.84-9.12,6.73-14.41,8.65-13,21.14-13T1740.67,275.76Z" transform="translate(-154.19 -155.77)"/><path d="M1926.66,295.46l129.76,268.18q8.16,16.33,8.17,24.51,0,17.29-27.87,31.24-16.35,8.16-25.72,8.17t-15.37-4.33a28.46,28.46,0,0,1-8.66-9.13q-2.64-4.8-7.45-14.42l-25-51.9H1821.41l-25,51.9q-4.82,9.62-7.45,13.94a34.43,34.43,0,0,1-8.65,8.89q-6,4.56-15.38,4.57t-25.71-8.17q-27.88-13.45-27.88-30.76,0-8.17,8.17-24.51L1849.28,295a42,42,0,0,1,16.1-17.78,42.58,42.58,0,0,1,22.83-6.73Q1914.16,270.47,1926.66,295.46Zm-38.93,115.35L1856,476.65h63.92Z" transform="translate(-154.19 -155.77)"/><path class="cls-2" d="M2388.5,530.48l8.65-6.25q16.32-9.62,23.07-9.61,14.88,0,32.19,26.91Q2463,558.36,2463,568.44a23.24,23.24,0,0,1-6.49,16.82,75.54,75.54,0,0,1-15.14,12q-8.66,5.29-16.58,10.09t-32.44,12.5a158.08,158.08,0,0,1-47.34,7.69,184.56,184.56,0,0,1-46.14-6q-23.31-6-48.05-20.19a197.85,197.85,0,0,1-44.46-34.6q-19.71-20.41-32.44-52.38t-12.74-69.45q0-37.49,12.5-68t32-50.47a183,183,0,0,1,44.45-33.4q47.1-25.95,94.68-25.95a160,160,0,0,1,45.9,7q23.3,7,35.32,14.18l11.54,6.72q8.64,5.29,13.45,8.65,12.5,10.1,12.5,22.83t-10.09,26.68q-18.75,26-33.65,25.95-8.64,0-24.51-10.58-20.17-16.32-53.82-16.34-31.24,0-61.52,21.63-14.41,10.57-24,29.8t-9.61,43.49q0,24.27,9.61,43.5t24.51,30.27q29.31,21.17,61,21.15a100.33,100.33,0,0,0,28.11-3.84Q2382.73,534.32,2388.5,530.48Z" transform="translate(-154.19 -155.77)"/><path class="cls-2" d="M2688.39,295.46l129.76,268.18q8.16,16.33,8.17,24.51,0,17.29-27.88,31.24-16.33,8.16-25.71,8.17t-15.38-4.33a28.52,28.52,0,0,1-8.65-9.13q-2.64-4.8-7.45-14.42l-25-51.9H2583.14l-25,51.9q-4.82,9.62-7.45,13.94a34.32,34.32,0,0,1-8.66,8.89q-6,4.56-15.37,4.57T2501,618.91q-27.87-13.45-27.87-30.76,0-8.17,8.17-24.51L2611,295a42,42,0,0,1,16.1-17.78,42.58,42.58,0,0,1,22.83-6.73Q2675.89,270.47,2688.39,295.46Zm-38.93,115.35-31.72,65.84h63.92Z" transform="translate(-154.19 -155.77)"/><path class="cls-2" d="M3085.84,270.47a139.83,139.83,0,0,1,16.58.72,36.44,36.44,0,0,1,12.5,4.57q7,3.86,9.85,13t2.88,24.51q0,15.38-2.88,24.51t-10.09,12.73a41.15,41.15,0,0,1-12.74,4.33,145.48,145.48,0,0,1-17.06.72H2937.82v48.54h94.67a145.68,145.68,0,0,1,17.07.72,38.48,38.48,0,0,1,12.73,4.57q12.49,7.2,12.5,38,0,33.65-18.27,39.89-7.68,2.41-24.51,2.4h-94.19v90.84a138.84,138.84,0,0,1-.72,16.82q-.72,5.29-4.57,12.49-6.74,13-37.49,13-33.64,0-39.41-18.26-2.88-7.68-2.88-24.51V312.77q0-24.51,9.13-33.41t34.6-8.89Z" transform="translate(-154.19 -155.77)"/><path class="cls-2" d="M3244,537.68h148a137.34,137.34,0,0,1,16.58.73,38.5,38.5,0,0,1,12.73,4.56q13,6.74,13,37.49,0,33.64-17.78,39.41-8.17,2.88-25,2.88H3201.18q-33.64,0-39.41-18.26-2.88-7.68-2.88-24.51V312.77q0-24.51,9.13-33.41t34.6-8.89H3392a140,140,0,0,1,16.58.72,38.55,38.55,0,0,1,12.73,4.57q13,6.74,13,37.49,0,33.64-17.78,39.4-8.17,2.89-25,2.89H3244v48.54h95.16a139.83,139.83,0,0,1,16.58.72,38.44,38.44,0,0,1,12.74,4.57q13,6.74,13,37.48,0,33.64-18.26,39.41-8.17,2.88-25,2.88H3244Z" transform="translate(-154.19 -155.77)"/><path d="M321.28,218.75a20.94,20.94,0,0,1,2.86,8.05,22,22,0,0,1-.43,8.22,21.62,21.62,0,0,1-3.5,7.45,21,21,0,0,1-6.32,5.75,21.86,21.86,0,0,1-5,2.2L303,240.51a10.12,10.12,0,0,0,2.77-.39,10.85,10.85,0,0,0,2.61-1.13,10.57,10.57,0,0,0,3.15-2.87,10.74,10.74,0,0,0,2-7.85,10.26,10.26,0,0,0-1.41-4l-16.6-27.69,9.2-5.51Z" transform="translate(-154.19 -155.77)"/><path d="M377.72,218l-10,3.92-3.92-10-20,7.85,3.93,10-10,3.91-11.76-30a20.93,20.93,0,0,1-1.49-8.41,22,22,0,0,1,1.78-8.05,21.52,21.52,0,0,1,4.68-6.78,21.68,21.68,0,0,1,15.6-6.12,21.59,21.59,0,0,1,14.85,6.49,21,21,0,0,1,4.63,7.19Zm-17.86-16.08-3.93-10a10.43,10.43,0,0,0-2.3-3.58,10.79,10.79,0,0,0-7.44-3.25,10.36,10.36,0,0,0-4.2.74,10.65,10.65,0,0,0-3.59,2.31,10.8,10.8,0,0,0-2.35,3.4,11,11,0,0,0-.9,4,10.71,10.71,0,0,0,.74,4.2l3.93,10Z" transform="translate(-154.19 -155.77)"/><path d="M414.09,156.39l-7.69,56.07-10.58,1.94-27-49.72,12-2.21,17,33.37L402,158.61Z" transform="translate(-154.19 -155.77)"/><path d="M467.64,209.88l-10.76-.17.18-10.76-21.52-.35-.18,10.76-10.72-.17.52-32.25a20.94,20.94,0,0,1,1.83-8.35,21.48,21.48,0,0,1,11.6-11.27,21.68,21.68,0,0,1,16.76.27,21.67,21.67,0,0,1,11.26,11.64,20.83,20.83,0,0,1,1.55,8.41Zm-10.41-21.65.17-10.76a10.42,10.42,0,0,0-.77-4.2,10.74,10.74,0,0,0-5.64-5.83,10.76,10.76,0,0,0-8.36-.13A10.74,10.74,0,0,0,436.8,173a10.31,10.31,0,0,0-.91,4.17l-.18,10.76Z" transform="translate(-154.19 -155.77)"/><path d="M533.52,192l-2.8,9.8-30.29-8.65,2.8-9.81Z" transform="translate(-154.19 -155.77)"/><path d="M589.94,251.19a27.57,27.57,0,0,1-18.88-3.65,27.2,27.2,0,0,1-5.78-4.67,28.06,28.06,0,0,1-6.55-26.73,27.75,27.75,0,0,1,7.66-12.62,27.91,27.91,0,0,1,5.85-4.23A28,28,0,0,1,593.13,197a27.3,27.3,0,0,1,6.81,3,27.93,27.93,0,0,1,7.36,6.46,26.76,26.76,0,0,1,4.6,8.6l-9.73,5.06a16.05,16.05,0,0,0-2.75-6.24,16.85,16.85,0,0,0-5.06-4.67,16.37,16.37,0,0,0-6.41-2.31,17.48,17.48,0,0,0-6.54.3,17.08,17.08,0,0,0-6,2.75,16.58,16.58,0,0,0-4.61,5,16.37,16.37,0,0,0-2.28,6.35,17.31,17.31,0,0,0,3.08,12.51,16.52,16.52,0,0,0,5,4.61,17,17,0,0,0,6.48,2.33,16.28,16.28,0,0,0,6.81-.45Z" transform="translate(-154.19 -155.77)"/><path d="M621.05,287.12l-7.9-7.3,7.3-7.91-15.81-14.6-7.3,7.9-7.88-7.28,21.89-23.68a20.79,20.79,0,0,1,6.92-5,21.84,21.84,0,0,1,8-1.91,21.55,21.55,0,0,1,8.14,1.24A21.66,21.66,0,0,1,646.74,240a21.54,21.54,0,0,1,.64,16.19,20.91,20.91,0,0,1-4.44,7.29ZM627.73,264l7.3-7.91a10.48,10.48,0,0,0,2.22-3.64,10.7,10.7,0,0,0,.63-4.09,10.84,10.84,0,0,0-1-4,10.52,10.52,0,0,0-2.5-3.45,10.27,10.27,0,0,0-3.64-2.22,10.68,10.68,0,0,0-8.11.32,10.42,10.42,0,0,0-3.46,2.5l-7.3,7.9Z" transform="translate(-154.19 -155.77)"/><path d="M631.74,301.26l-6.4-8.66,43.24-32L691,290.92l-8.65,6.39-16-21.62-8.66,6.4,9.59,13-8.66,6.4-9.58-13Z" transform="translate(-154.19 -155.77)"/><path d="M665.57,358.83l-16.43-33,48.14-24,16.42,33-9.63,4.8L692.44,316.3l-9.64,4.79,7.88,15.81L681,341.7l-7.87-15.81-9.6,4.78L675.2,354Z" transform="translate(-154.19 -155.77)"/><path d="M711.38,407.27l-10,2.07L695,378.5l10-2.07Z" transform="translate(-154.19 -155.77)"/><path d="M702.68,465.07a20.86,20.86,0,0,1-8.34-1.89,21.41,21.41,0,0,1-11.13-11.7,21,21,0,0,1-1.48-8.42,22.68,22.68,0,0,1,.81-5.38l11.55.29a9.88,9.88,0,0,0-1.15,2.56,10.24,10.24,0,0,0-.45,2.8,10.46,10.46,0,0,0,.74,4.2,10.79,10.79,0,0,0,5.57,5.88,10.36,10.36,0,0,0,4.14.94l32.28.81L735,465.88Z" transform="translate(-154.19 -155.77)"/><path d="M673.21,513.14l2-10.57,10.56,2,4.07-21.13-10.57-2,2-10.54L713,477a21,21,0,0,1,7.91,3.24,22,22,0,0,1,5.85,5.8,21.42,21.42,0,0,1,3.24,7.57,21.68,21.68,0,0,1-3.17,16.46,21.59,21.59,0,0,1-13.41,9.09,21,21,0,0,1-8.55.07Zm23.13-6.51,10.57,2a10.4,10.4,0,0,0,4.27,0,10.67,10.67,0,0,0,6.71-4.55,10.47,10.47,0,0,0,1.62-3.94,10.58,10.58,0,0,0,0-4.27,11,11,0,0,0-1.62-3.8,10.72,10.72,0,0,0-2.94-2.91,10.47,10.47,0,0,0-3.94-1.62l-10.57-2Z" transform="translate(-154.19 -155.77)"/><path d="M705.81,576.81l-43.29-36.45,4-10L723,534.13l-4.56,11.34L681.12,542,710.4,565.4Z" transform="translate(-154.19 -155.77)"/><path d="M632,593.65l5.84-9,9,5.84,11.68-18.07-9-5.84,5.82-9L682.43,575a20.85,20.85,0,0,1,6.12,6,22.1,22.1,0,0,1,3.26,7.58,21.46,21.46,0,0,1,.16,8.23,21.67,21.67,0,0,1-9.1,14.08,21.58,21.58,0,0,1-15.83,3.4,21,21,0,0,1-8-3.13Zm23.89,2.63,9,5.84a10.57,10.57,0,0,0,4,1.56,10.72,10.72,0,0,0,7.94-1.7,10.84,10.84,0,0,0,4.53-7,10.71,10.71,0,0,0-1.7-7.93,10.57,10.57,0,0,0-3-3l-9-5.84Z" transform="translate(-154.19 -155.77)"/><path d="M611.79,658.67,605,651.06l23.51-21,6.79,7.61Z" transform="translate(-154.19 -155.77)"/><path d="M531.76,674.7a27.4,27.4,0,0,1,5.3-8.18,27.71,27.71,0,0,1,7.85-5.85,27.43,27.43,0,0,1,7-2.41,28.1,28.1,0,0,1,7.19-.45,28.39,28.39,0,0,1,13.43,4.48,28,28,0,0,1,5.48,4.68,27.8,27.8,0,0,1,6.6,13.2,27.87,27.87,0,0,1,.46,7.21,27.81,27.81,0,0,1-15.31,23.1,27.9,27.9,0,0,1-9.38,2.78,26.61,26.61,0,0,1-9.73-.69l.9-10.93a16.13,16.13,0,0,0,6.75,1,17,17,0,0,0,6.65-1.79,16.51,16.51,0,0,0,5.37-4.19,17.6,17.6,0,0,0,3.23-5.7,17.28,17.28,0,0,0,.86-6.51,16.63,16.63,0,0,0-1.77-6.55,16.23,16.23,0,0,0-4.17-5.32,17.38,17.38,0,0,0-12.21-4.06,16.46,16.46,0,0,0-6.58,1.78,17,17,0,0,0-5.42,4.24,16,16,0,0,0-3.25,6Z" transform="translate(-154.19 -155.77)"/><path d="M484.68,681.8l10.4-2.77,2.77,10.4,20.79-5.54-2.77-10.4,10.37-2.76,8.3,31.16a21.13,21.13,0,0,1,.53,8.53,22,22,0,0,1-2.68,7.8,21.46,21.46,0,0,1-5.41,6.21,21.65,21.65,0,0,1-16.19,4.32,21.58,21.58,0,0,1-14-8.12A20.89,20.89,0,0,1,493,713Zm15.93,18,2.77,10.4a10.57,10.57,0,0,0,1.89,3.83,10.88,10.88,0,0,0,3.11,2.72,10.75,10.75,0,0,0,3.91,1.34,10.77,10.77,0,0,0,8.08-2.15,10.76,10.76,0,0,0,3.81-11.28l-2.77-10.4Z" transform="translate(-154.19 -155.77)"/><path d="M467,683.24l10.74-.76,3.78,53.64-37.55,2.65L443.17,728l26.82-1.9-.76-10.73-16.08,1.14-.76-10.74,16.08-1.13Z" transform="translate(-154.19 -155.77)"/><path d="M400.2,681l36.67,3.76-5.47,53.49-36.67-3.76,1.1-10.7,26,2.65,1.09-10.7-17.57-1.8,1.1-10.71L424,705l1.09-10.67-26-2.65Z" transform="translate(-154.19 -155.77)"/><path d="M334.84,693.89l3.58-9.56,29.49,11.06-3.58,9.55Z" transform="translate(-154.19 -155.77)"/><path d="M290.62,655.59a20.93,20.93,0,0,1,6.06-6,21.37,21.37,0,0,1,15.84-3.13,20.9,20.9,0,0,1,7.91,3.26,22.32,22.32,0,0,1,4.11,3.57l-6.43,9.59a10.23,10.23,0,0,0-1.55-2.34,11.12,11.12,0,0,0-2.12-1.88,10.74,10.74,0,0,0-8.08-1.62,10.92,10.92,0,0,0-3.82,1.55,10.33,10.33,0,0,0-3,3l-18,26.82-8.91-6Z" transform="translate(-154.19 -155.77)"/><path d="M265.81,604.93l7.83,7.38-7.38,7.83,15.67,14.76,7.38-7.84,7.8,7.36L275,657.89a20.81,20.81,0,0,1-7,4.94,21.78,21.78,0,0,1-8,1.83,21.55,21.55,0,0,1-8.13-1.32,21.65,21.65,0,0,1-12.2-11.49,21.54,21.54,0,0,1-.48-16.19,20.94,20.94,0,0,1,4.51-7.26Zm-6.9,23-7.38,7.84a10.48,10.48,0,0,0-2.25,3.62,10.68,10.68,0,0,0-.68,4.08,10.8,10.8,0,0,0,.92,4,10.74,10.74,0,0,0,6.08,5.73,10.68,10.68,0,0,0,8.11-.24,10.52,10.52,0,0,0,3.48-2.46l7.38-7.84Z" transform="translate(-154.19 -155.77)"/><path d="M194.58,598.52l53.94-17.15,6.3,8.72-33.31,45.73-7.15-9.91,22.82-29.69-35.4,12.27Z" transform="translate(-154.19 -155.77)"/><path d="M219.69,527.09l4.53,9.77-9.76,4.52,9,19.53,9.76-4.53,4.52,9.73-29.26,13.57a21,21,0,0,1-8.31,2,21.8,21.8,0,0,1-8.14-1.29,21.45,21.45,0,0,1-7.06-4.25A21.7,21.7,0,0,1,178,560.92a21.64,21.64,0,0,1,5.58-15.21,20.82,20.82,0,0,1,6.89-5.05Zm-15,18.8L195,550.42a10.53,10.53,0,0,0-3.43,2.52,10.8,10.8,0,0,0-2.14,3.54,10.78,10.78,0,0,0,2.86,11.67,10.78,10.78,0,0,0,7.62,2.79,10.48,10.48,0,0,0,4.15-1l9.76-4.53Z" transform="translate(-154.19 -155.77)"/><path d="M175.61,475.2l10.06-1.64,5.09,31.08-10.07,1.65Z" transform="translate(-154.19 -155.77)"/><path d="M204.91,399a27.28,27.28,0,0,1,4.08,8.86,27.62,27.62,0,0,1,.75,9.76,27.28,27.28,0,0,1-1.73,7.23,27.84,27.84,0,0,1-3.46,6.32,28.35,28.35,0,0,1-4.91,5.18,28.2,28.2,0,0,1-12.94,5.91,27.71,27.71,0,0,1-21-5,28.2,28.2,0,0,1-9-11,27.72,27.72,0,0,1-2.13-6.89,27.06,27.06,0,0,1-.25-7.43,27.74,27.74,0,0,1,2.66-9.41,26.61,26.61,0,0,1,5.79-7.86l8.75,6.61a16.17,16.17,0,0,0-4.46,5.16,17.3,17.3,0,0,0-2,6.58,16.72,16.72,0,0,0,.68,6.78,17.64,17.64,0,0,0,3.09,5.77,17.32,17.32,0,0,0,5,4.21,16.81,16.81,0,0,0,6.49,2,16.6,16.6,0,0,0,6.72-.68,17.49,17.49,0,0,0,5.76-3.12,17.14,17.14,0,0,0,4.2-5,16.64,16.64,0,0,0,2-6.5,17.11,17.11,0,0,0-.68-6.86,16.14,16.14,0,0,0-3.34-5.95Z" transform="translate(-154.19 -155.77)"/><path d="M224.05,355.42l-3.21,10.27-10.28-3.21L204.14,383l10.27,3.21-3.2,10.24-30.78-9.63a21,21,0,0,1-7.49-4.11,21.91,21.91,0,0,1-5.16-6.43,21.48,21.48,0,0,1-2.37-7.89,21.68,21.68,0,0,1,5-16,22,22,0,0,1,6.45-5.15,21.62,21.62,0,0,1,7.91-2.36,21,21,0,0,1,8.5.89Zm-23.72,3.85-10.27-3.21a10.41,10.41,0,0,0-4.24-.44,10.76,10.76,0,0,0-4,1.18,10.91,10.91,0,0,0-3.22,2.58,10.85,10.85,0,0,0-2.5,8,10.9,10.9,0,0,0,1.18,4,10.71,10.71,0,0,0,2.59,3.23,10.37,10.37,0,0,0,3.73,2.05l10.27,3.22Z" transform="translate(-154.19 -155.77)"/><path d="M232.26,339.75l-5.1,9.48-47.35-25.47,17.83-33.16,9.48,5.1-12.74,23.68,9.48,5.1,7.64-14.2,9.48,5.1-7.64,14.19Z" transform="translate(-154.19 -155.77)"/><path d="M270,284.5l-22.84,28.93-42.2-33.32,22.84-28.92,8.45,6.66-16.17,20.49,8.44,6.67,10.95-13.87,8.44,6.67-10.94,13.86,8.42,6.65,16.17-20.48Z" transform="translate(-154.19 -155.77)"/><path d="M274.09,237.13l6.87,7.53L257.7,265.9l-6.87-7.54Z" transform="translate(-154.19 -155.77)"/></svg>